<svg width="6" height="8" fill="none" xmlns="http://www.w3.org/2000/svg"><path d="M4.125 8a.435.435 0 0 1-.319-.132.455.455 0 0 1-.121-.319V1.532l.176.066L1.232 5.03l-.044-.132h4.114c.117 0 .216.04.297.121.08.08.121.18.121.297 0 .11-.04.205-.121.286a.425.425 0 0 1-.297.11H.583a.447.447 0 0 1-.308-.132.422.422 0 0 1-.132-.308c0-.11.037-.205.11-.286L3.762.476a.374.374 0 0 1 .176-.132A.484.484 0 0 1 4.136.3a.4.4 0 0 1 .308.132c.08.08.121.183.121.308v6.809a.435.435 0 0 1-.132.319.4.4 0 0 1-.308.132Z" fill="#fff"/></svg>